<svg width="26" height="14" viewBox="0 0 26 14" fill="none" xmlns="http://www.w3.org/2000/svg">
<g id="Battery">
<rect id="Rectangle 1" x="0.833343" y="1.07284" width="21.841" height="11.5825" rx="2.83333" stroke="#919194"/>
<rect id="Rectangle 2" x="2.34872" y="2.66993" width="11.4205" height="8.38836" rx="1.66667" fill="black"/>
<path id="Ellipse 1" d="M24.1821 8.96119C24.3585 8.96119 24.5332 8.90695 24.6962 8.80156C24.8592 8.69617 25.0074 8.5417 25.1321 8.34697C25.2569 8.15224 25.3559 7.92106 25.4234 7.66662C25.4909 7.41219 25.5256 7.1395 25.5256 6.8641C25.5256 6.58871 25.4909 6.31601 25.4234 6.06158C25.3559 5.80715 25.2569 5.57597 25.1321 5.38124C25.0074 5.1865 24.8592 5.03203 24.6962 4.92664C24.5332 4.82126 24.3585 4.76701 24.1821 4.76701L24.1821 6.8641L24.1821 8.96119Z" fill="#79797B"/>
</g>
</svg>
