<svg width="17" height="13" viewBox="0 0 17 13" fill="none" xmlns="http://www.w3.org/2000/svg">
<g id="Wifi">
<path id="Bar 1" d="M0.274128 4.36778C0.135681 4.23593 0.125802 4.01186 0.256516 3.87177C1.29667 2.75674 2.53554 1.8613 3.9051 1.23612C5.37844 0.563558 6.97057 0.218609 8.57946 0.223369C10.1883 0.228129 11.7785 0.582494 13.2482 1.26376C14.6143 1.89704 15.8482 2.79979 16.8823 3.92095C17.0123 4.06182 17.0011 4.28582 16.862 4.41685L15.3553 5.83532C15.2161 5.96633 15.0017 5.95462 14.8705 5.81496C14.0906 4.9845 13.1659 4.31439 12.1448 3.84101C11.02 3.31963 9.80304 3.04843 8.57174 3.04479C7.34045 3.04115 6.122 3.30514 4.99442 3.81986C3.97068 4.28719 3.04236 4.95183 2.25795 5.77765C2.126 5.91654 1.91152 5.92697 1.77308 5.79512L0.274128 4.36778Z" fill="black"/>
<path id="Bar 2" d="M3.39261 7.63566C3.2503 7.50837 3.23351 7.28448 3.36247 7.14263C3.98782 6.45473 4.73458 5.89681 5.5631 5.50002C6.49465 5.0539 7.50765 4.82192 8.53312 4.8199C9.55859 4.81789 10.5724 5.04588 11.5056 5.48835C12.3356 5.88189 13.0843 6.43684 13.7122 7.12226C13.8417 7.26362 13.8257 7.48758 13.6838 7.6154L12.3915 8.78003C12.2497 8.90789 12.0359 8.89085 11.9032 8.75277C11.5024 8.33569 11.0324 7.99596 10.5149 7.75061C9.89415 7.45629 9.21977 7.30464 8.53764 7.30598C7.85551 7.30732 7.18167 7.46163 6.56203 7.75839C6.04542 8.00579 5.57662 8.34732 5.17735 8.766C5.04516 8.9046 4.83146 8.92249 4.68911 8.7952L3.39261 7.63566Z" fill="black"/>
<path id="Bar 3" d="M10.9494 10.4521C11.0821 10.314 11.083 10.0888 10.9388 9.96376C10.6498 9.71332 10.3256 9.50923 9.977 9.35896C9.52349 9.1635 9.03743 9.0629 8.54658 9.0629C8.05573 9.0629 7.56967 9.1635 7.11616 9.35896C6.76749 9.50923 6.44334 9.71332 6.15437 9.96376C6.01016 10.0888 6.01107 10.314 6.14377 10.4521L8.3063 12.7023C8.439 12.8404 8.65416 12.8404 8.78686 12.7023L10.9494 10.4521Z" fill="black"/>
</g>
</svg>
