<svg width="31" height="31" viewBox="0 0 31 31" fill="none" xmlns="http://www.w3.org/2000/svg">
  <defs>
    <clipPath id="clip0_64_901">
      <rect width="31" height="31" fill="white"/>
    </clipPath>
  </defs>
  <g clip-path="url(#clip0_64_901)">
    <path 
      d="m 29.8214,15.3518 h 10e-5 c 0.0012,-0.1884 -0.0367,-0.375 -0.1115,-0.5479 -0.0746,-0.1725 -0.1842,-0.3277 -0.322,-0.4556 l -8e-4,-8e-4 L 15.5,1.53896 1.61284,14.3475 c -2.7e-4,3e-4 -5.4e-4,5e-4 -8.1e-4,8e-4 C 1.47428,14.4762 1.36462,14.6314 1.29,14.8039 1.21523,14.9768 1.17728,15.1634 1.17855,15.3518 l 5e-5,0.0068 h -3e-5 v 13.1057 c 0,0.3599 0.14299,0.7051 0.3975,0.9596 M 29.8214,15.3518 v 0.0068 13.1057 c 0,0.3599 -0.143,0.7051 -0.3975,0.9596 -0.2545,0.2545 -0.5997,0.3975 -0.9596,0.3975 H 2.53572 c -0.35994,0 -0.70513,-0.143 -0.95965,-0.3975" 
      stroke="#000001" 
      stroke-width="2" 
      stroke-linecap="round" 
      stroke-linejoin="round"/>
  </g>
</svg>